<svg width="4867" height="1679" viewBox="0 0 4867 1679" fill="none" xmlns="http://www.w3.org/2000/svg">
<rect width="4867" height="1679" fill="white"/>
<path d="M1435.79 600.061C1482.64 600.061 1522.3 611.89 1554.78 635.548C1586.78 659.206 1606.96 691.213 1615.31 731.571L1540.86 746.879C1536.68 722.293 1524.86 702.346 1505.37 687.038C1485.43 672.194 1461.77 664.772 1434.4 664.772C1406.57 664.772 1384.53 671.267 1368.3 684.255C1351.6 697.244 1343.25 714.407 1343.25 735.746C1343.25 751.981 1348.12 764.738 1357.86 774.016C1367.14 783.293 1381.98 790.019 1402.39 794.194L1503.28 815.765C1583.07 832.928 1622.97 875.373 1622.97 943.099C1622.97 986.704 1606.73 1021.26 1574.26 1046.78C1541.32 1072.75 1497.95 1085.74 1444.14 1085.74C1392.65 1085.74 1349.05 1073.45 1313.33 1048.86C1277.61 1024.28 1256.97 990.415 1251.4 947.274L1330.72 930.574C1336.29 960.262 1349.74 982.297 1371.08 996.677C1392.88 1011.98 1419.55 1019.64 1451.1 1019.64C1481.71 1019.64 1505.84 1012.91 1523.46 999.46C1540.63 986.472 1549.21 969.076 1549.21 947.274C1549.21 929.183 1544.34 915.73 1534.6 906.917C1523.46 897.175 1506.53 889.985 1483.8 885.346L1382.21 864.472C1303.82 846.38 1264.62 804.168 1264.62 737.833C1264.62 697.012 1280.39 663.613 1311.94 637.635C1343.48 612.586 1384.76 600.061 1435.79 600.061ZM2035.44 920.833H1755.72C1758.97 951.913 1770.56 976.73 1790.51 995.285C1810.46 1013.84 1833.65 1023.12 1860.09 1023.12C1907.41 1023.12 1941.27 1003.17 1961.68 963.278L2026.39 977.194C2012.48 1012.91 1991.14 1039.82 1962.38 1057.91C1933.62 1076.46 1899.52 1085.74 1860.09 1085.74C1811.38 1085.74 1770.1 1068.81 1736.24 1034.95C1701.45 1000.62 1684.05 957.015 1684.05 904.133C1684.05 849.86 1701.45 805.791 1736.24 771.928C1770.1 738.065 1812.31 721.133 1862.88 721.133C1910.19 721.133 1950.32 737.369 1983.25 769.841C2015.72 802.312 2033.12 844.293 2035.44 895.783V920.833ZM1862.88 785.149C1838.75 785.149 1816.49 792.571 1796.08 807.415C1775.2 822.259 1762.45 842.901 1757.81 869.342H1960.99C1955.42 842.437 1943.82 821.563 1926.19 806.719C1909.03 792.339 1887.92 785.149 1862.88 785.149ZM2307.61 721.133C2348.89 721.133 2382.29 734.586 2407.8 761.491C2433.32 788.396 2446.07 823.65 2446.07 867.255V1076H2373.01V881.867C2373.01 854.034 2365.59 831.304 2350.75 813.677C2335.44 796.514 2315.49 787.932 2290.91 787.932C2258.9 787.932 2233.85 798.833 2215.76 820.635C2197.2 841.974 2187.93 873.981 2187.93 916.658V1076H2115.56V730.875H2187.93V773.32C2217.15 738.529 2257.04 721.133 2307.61 721.133ZM2590.19 968.148C2592.51 987.631 2601.55 1002.24 2617.33 1011.98C2632.63 1021.73 2652.35 1026.6 2676.47 1026.6C2697.34 1026.6 2714.04 1022.42 2726.57 1014.07C2738.63 1005.72 2744.66 994.589 2744.66 980.673C2744.66 960.262 2729.12 946.578 2698.04 939.62L2622.89 924.312C2560.27 910.396 2528.96 879.084 2528.96 830.377C2528.96 797.441 2541.48 771 2566.53 751.054C2590.65 731.107 2623.59 721.133 2665.34 721.133C2704.77 721.133 2737.24 730.179 2762.75 748.27C2788.73 767.289 2804.73 791.411 2810.76 820.635L2741.88 835.247C2739.09 818.548 2730.74 804.863 2716.83 794.194C2703.37 783.989 2685.52 778.886 2663.25 778.886C2643.77 778.886 2628.69 783.061 2618.02 791.411C2607.35 800.688 2602.02 811.59 2602.02 824.114C2602.02 843.597 2615.93 856.586 2643.77 863.08L2725.87 881.171C2753.71 887.202 2775.74 898.103 2791.98 913.875C2807.75 929.647 2815.63 949.825 2815.63 974.411C2815.63 1009.67 2802.41 1037.03 2775.97 1056.52C2749.53 1076 2714.28 1085.74 2670.21 1085.74C2628.92 1085.74 2594.36 1076.93 2566.53 1059.3C2538.23 1042.14 2522 1016.86 2517.82 983.456L2590.19 968.148ZM3219.14 920.833H2939.42C2942.67 951.913 2954.27 976.73 2974.21 995.285C2994.16 1013.84 3017.36 1023.12 3043.8 1023.12C3091.11 1023.12 3124.97 1003.17 3145.39 963.278L3210.1 977.194C3196.18 1012.91 3174.84 1039.82 3146.08 1057.91C3117.32 1076.46 3083.23 1085.74 3043.8 1085.74C2995.09 1085.74 2953.8 1068.81 2919.94 1034.95C2885.15 1000.62 2867.75 957.015 2867.75 904.133C2867.75 849.86 2885.15 805.791 2919.94 771.928C2953.8 738.065 2996.02 721.133 3046.58 721.133C3093.89 721.133 3134.02 737.369 3166.96 769.841C3199.43 802.312 3216.82 844.293 3219.14 895.783V920.833ZM3046.58 785.149C3022.46 785.149 3000.19 792.571 2979.78 807.415C2958.91 822.259 2946.15 842.901 2941.51 869.342H3144.69C3139.12 842.437 3127.53 821.563 3109.9 806.719C3092.74 792.339 3071.63 785.149 3046.58 785.149ZM3528.88 1059.3C3498.73 1076.93 3470.2 1085.74 3443.3 1085.74C3405.26 1085.74 3374.88 1074.84 3352.15 1053.04C3329.88 1031.24 3318.75 999.692 3318.75 958.407V790.715H3244.29V730.875H3318.75V623.719H3391.11V730.875H3509.4V790.715H3391.11V953.536C3391.11 974.875 3396.21 990.646 3406.42 1000.85C3417.09 1011.98 3431.01 1017.55 3448.17 1017.55C3468.58 1017.55 3488.06 1011.29 3506.62 998.764L3528.88 1059.3ZM3908.84 920.833H3629.12C3632.37 951.913 3643.97 976.73 3663.92 995.285C3683.86 1013.84 3707.06 1023.12 3733.5 1023.12C3780.81 1023.12 3814.68 1003.17 3835.09 963.278L3899.8 977.194C3885.88 1012.91 3864.54 1039.82 3835.78 1057.91C3807.02 1076.46 3772.93 1085.74 3733.5 1085.74C3684.79 1085.74 3643.51 1068.81 3609.64 1034.95C3574.85 1000.62 3557.46 957.015 3557.46 904.133C3557.46 849.86 3574.85 805.791 3609.64 771.928C3643.51 738.065 3685.72 721.133 3736.28 721.133C3783.6 721.133 3823.72 737.369 3856.66 769.841C3889.13 802.312 3906.52 844.293 3908.84 895.783V920.833ZM3736.28 785.149C3712.16 785.149 3689.89 792.571 3669.48 807.415C3648.61 822.259 3635.85 842.901 3631.21 869.342H3834.39C3828.82 842.437 3817.23 821.563 3799.6 806.719C3782.44 792.339 3761.33 785.149 3736.28 785.149ZM4328.52 1194.29H4255.46V1037.03C4222.99 1069.51 4181.24 1085.74 4130.22 1085.74C4084.29 1085.74 4044.17 1068.58 4009.84 1034.25C3975.98 1000.39 3959.05 956.783 3959.05 903.437C3959.05 850.091 3975.98 806.487 4009.84 772.624C4044.17 738.297 4084.29 721.133 4130.22 721.133C4181.71 721.133 4223.46 737.601 4255.46 770.536V730.875H4328.52V1194.29ZM4142.05 1021.73C4171.73 1021.73 4198.17 1010.83 4221.37 989.023C4244.1 967.685 4255.46 939.156 4255.46 903.437C4255.46 868.647 4244.1 840.118 4221.37 817.852C4198.17 796.05 4171.73 785.149 4142.05 785.149C4110.5 785.149 4083.83 796.05 4062.03 817.852C4040.69 839.19 4030.02 867.719 4030.02 903.437C4030.02 939.156 4040.69 967.685 4062.03 989.023C4083.83 1010.83 4110.5 1021.73 4142.05 1021.73Z" fill="black"/>
<path d="M1018 728C1018 694.382 1011.38 661.092 998.513 630.033C985.648 598.974 966.791 570.752 943.019 546.981C919.248 523.209 891.026 504.352 859.967 491.487C828.908 478.622 795.618 472 762 472V728H1018Z" fill="#2DB867"/>
<path d="M506 472C506 505.618 512.622 538.908 525.487 569.967C538.352 601.026 557.209 629.248 580.981 653.019C604.752 676.791 632.974 695.648 664.033 708.513C695.092 721.378 728.382 728 762 728V472L506 472Z" fill="#4CD887"/>
<path d="M506 728C506 761.618 512.622 794.908 525.487 825.967C538.352 857.026 557.209 885.247 580.981 909.019C604.752 932.791 632.974 951.648 664.033 964.513C695.092 977.378 728.382 984 762 984V728L506 728Z" fill="#1E7442"/>
<path d="M762 728C795.618 728 828.908 734.622 859.967 747.487C891.026 760.352 919.248 779.209 943.019 802.981C966.791 826.752 985.648 854.974 998.513 886.033C1011.38 917.092 1018 950.382 1018 984H762V728Z" fill="#18221C"/>
<path d="M762 1240C795.618 1240 828.908 1233.38 859.967 1220.51C891.026 1207.65 919.248 1188.79 943.019 1165.02C966.791 1141.25 985.648 1113.03 998.513 1081.97C1011.38 1050.91 1018 1017.62 1018 984H762L762 1240Z" fill="#1DD66A"/>
<path d="M506 1240C506 1206.38 512.622 1173.09 525.487 1142.03C538.352 1110.97 557.209 1082.75 580.981 1058.98C604.752 1035.21 632.974 1016.35 664.033 1003.49C695.092 990.622 728.382 984 762 984L762 1240H506Z" fill="#0FA44D"/>
</svg>
