<svg width="219" height="48" viewBox="0 0 219 48" fill="none" xmlns="http://www.w3.org/2000/svg">
<path d="M19.5823 17.4339C19.2566 18.0575 18.4871 18.299 17.8635 17.9733C17.2399 17.6475 16.9984 16.878 17.3242 16.2544C17.6499 15.6308 18.4194 15.3894 19.043 15.7151C19.6666 16.0408 19.908 16.8104 19.5823 17.4339Z" fill="#22CD9A"/>
<path d="M16.6675 19.2049L16.668 19.2047C16.5886 19.3629 16.4874 19.506 16.3691 19.631C16.2567 19.7503 16.1271 19.855 15.9828 19.9409L15.983 19.9402C15.7258 20.0935 15.4306 20.1828 15.1231 20.1928C14.8812 20.201 14.6442 20.1597 14.4248 20.0759C14.214 19.9959 14.0255 19.879 13.8649 19.7346C13.6488 19.5411 13.4772 19.2932 13.3739 19.0039C13.3164 18.8439 13.2813 18.6749 13.2714 18.5016C13.2567 18.2515 13.2952 18.0058 13.3791 17.7784C13.5537 17.3022 13.9157 16.9372 14.3583 16.7476C14.6003 16.6439 14.8665 16.5927 15.1392 16.6044C15.2969 16.611 15.4515 16.6385 15.5993 16.6848C15.8969 16.7775 16.1547 16.9419 16.3582 17.154C16.5098 17.3115 16.6343 17.4985 16.7217 17.7096C16.8061 17.9123 16.8539 18.1315 16.8589 18.357C16.8606 18.4297 16.8579 18.5019 16.8509 18.5734L19.4395 19.2283C19.4552 19.1931 19.4726 19.1582 19.4918 19.1239C19.5084 19.0941 19.526 19.0652 19.5446 19.0373L19.5431 19.038L19.5403 19.0393C19.8345 18.5939 20.3878 18.3608 20.9346 18.4987C21.1877 18.5626 21.4042 18.697 21.5686 18.8757C21.9383 19.275 22.0279 19.8819 21.7484 20.3829C21.471 20.8801 20.9139 21.1227 20.3836 21.0239L20.3864 21.0226C20.3584 21.0175 20.3305 21.0114 20.3026 21.0043C20.0415 20.9385 19.8191 20.7974 19.6529 20.6101L19.653 20.6107C19.6113 20.5636 19.5734 20.5138 19.5393 20.4618C19.4207 20.2815 19.3473 20.0719 19.3302 19.8519L19.3318 19.8539C19.3263 19.7834 19.3265 19.7123 19.3326 19.6413L16.7588 18.9901C16.733 19.0637 16.7025 19.1354 16.6675 19.2049Z" fill="#22CD9A"/>
<path d="M17.1576 20.4258C16.9484 20.558 16.7941 20.7753 16.7498 21.0385C16.6844 21.4266 16.8775 21.7985 17.2038 21.9782L17.2027 21.9764L17.2019 21.975C17.2013 21.974 17.2007 21.9729 17.2002 21.9717L17.1996 21.9704C17.2467 21.9971 17.2956 22.0192 17.3456 22.0367L17.039 23.8764C16.9894 23.875 16.9396 23.8766 16.89 23.8812L16.8907 23.8804C16.7841 23.8904 16.6806 23.9139 16.5822 23.9496C16.5608 23.9573 16.5396 23.9656 16.5186 23.9745C16.3335 24.0532 16.1694 24.1758 16.0411 24.3312L16.041 24.3296C15.6867 24.757 15.6491 25.3849 15.9874 25.8577C16.3441 26.3561 16.999 26.5148 17.535 26.2645C17.8977 26.096 18.1736 25.757 18.244 25.3327C18.3417 24.7434 18.0109 24.1822 17.4795 23.967L17.4803 23.969C17.4282 23.9478 17.3749 23.9301 17.3207 23.9161L17.6255 22.087C17.6784 22.088 17.7312 22.0844 17.7834 22.0763C17.7825 22.0772 17.7816 22.0781 17.7808 22.0789C17.8833 22.0626 17.9811 22.0288 18.0703 21.9801C18.0838 21.9728 18.0971 21.9653 18.1102 21.9573L18.1096 21.9573C18.2785 21.8539 18.4127 21.6955 18.4843 21.5023C18.4849 21.5042 18.4855 21.5061 18.486 21.508C18.6206 21.1564 18.5243 20.7435 18.218 20.4904C17.9083 20.2346 17.4787 20.2203 17.1576 20.4258Z" fill="#22CD9A"/>
<path d="M15.8259 33.544C15.8265 33.5454 15.827 33.5468 15.8276 33.5483C15.7776 33.5176 15.7254 33.4923 15.6717 33.4724L16.1005 31.6713C16.1523 31.6777 16.2044 31.6809 16.2565 31.6809C16.3877 31.6809 16.5158 31.6605 16.6372 31.6215C16.7391 31.5891 16.8376 31.5433 16.9298 31.4844L16.9294 31.4843C17.1329 31.3545 17.2991 31.1663 17.4007 30.937C17.4457 30.8358 17.4765 30.7301 17.4933 30.6227C17.5253 30.4206 17.5066 30.2207 17.446 30.037C17.3943 29.8791 17.3105 29.7298 17.1951 29.5993C17.0956 29.4863 16.9751 29.3905 16.8379 29.3187C16.701 29.2467 16.5538 29.202 16.4043 29.1842C16.2272 29.1629 16.0527 29.18 15.8901 29.2298C15.7176 29.2823 15.5545 29.3726 15.4141 29.5002C15.3118 29.5928 15.2242 29.7028 15.1564 29.8269C15.0772 29.9715 15.0288 30.1279 15.0109 30.2869C14.9913 30.4583 15.0077 30.6271 15.0547 30.7848C15.1087 30.9674 15.2049 31.1397 15.3428 31.2861C15.4232 31.3718 15.5161 31.4467 15.6195 31.5076C15.6853 31.5465 15.7538 31.5788 15.8241 31.6045L15.3926 33.4166C15.3454 33.4148 15.2981 33.4166 15.2512 33.4221L15.2516 33.4218L15.2533 33.4205C15.1547 33.4322 15.0597 33.4601 14.9719 33.502C14.9548 33.5101 14.938 33.5187 14.9214 33.5278L14.9218 33.5278C14.7491 33.6238 14.6085 33.7759 14.5287 33.9656L14.5285 33.964L14.5282 33.9619C14.3813 34.3042 14.4575 34.7162 14.7476 34.9822C15.0593 35.2679 15.5174 35.2932 15.8546 35.0697C16.0439 34.9454 16.1869 34.75 16.2399 34.5114C16.326 34.1235 16.1482 33.7385 15.8259 33.544Z" fill="#22CD9A"/>
<path d="M22.2739 28.4458C22.2763 28.4447 22.2789 28.4436 22.2815 28.4426C22.2531 28.4932 22.23 28.5459 22.2122 28.5997L20.3899 28.2633C20.3948 28.2078 20.396 28.1521 20.3935 28.0966L20.3941 28.0971C20.3879 27.9533 20.3569 27.8141 20.3047 27.6846C20.2693 27.5964 20.2237 27.5116 20.1679 27.4322L20.1678 27.4327C20.0536 27.2699 19.9009 27.1341 19.72 27.0402C19.2115 26.7751 18.5701 26.8871 18.1848 27.3436C17.9064 27.6734 17.8277 28.1049 17.9362 28.4913C17.9856 28.6674 18.0739 28.8341 18.2 28.9775C18.3806 29.1841 18.6301 29.333 18.9213 29.3852C19.4934 29.4878 20.0444 29.1843 20.2783 28.6808L20.2777 28.6811C20.299 28.6355 20.3173 28.5891 20.3327 28.5419L22.1667 28.8805C22.1666 28.9294 22.1705 28.9783 22.1782 29.0265L22.1754 29.0232C22.1912 29.1199 22.2226 29.2123 22.2673 29.2972C22.2769 29.316 22.2873 29.3344 22.2984 29.3526L22.2984 29.3518C22.4027 29.5205 22.5619 29.6544 22.7562 29.7251C22.7546 29.7255 22.753 29.7258 22.7515 29.7261L22.7492 29.7265C23.0976 29.8583 23.5059 29.7643 23.7589 29.4628C24.0174 29.155 24.0349 28.7252 23.8316 28.4025C23.7011 28.1923 23.4851 28.0365 23.2223 27.9901C22.8311 27.921 22.4542 28.1154 22.2739 28.4458Z" fill="#22CD9A"/>
<path d="M10.214 25.7629C10.211 25.7639 10.2079 25.765 10.2048 25.7664C10.4023 25.8285 10.5677 25.9557 10.6794 26.1203L10.6793 26.1188C10.6928 26.139 10.7054 26.1597 10.7171 26.1809C10.7636 26.2625 10.7975 26.3518 10.8167 26.4457C10.8155 26.4446 10.8142 26.4434 10.8128 26.4423C10.8227 26.4921 10.8284 26.5427 10.8299 26.5935L12.674 26.8277C12.6859 26.7719 12.7017 26.7166 12.7215 26.6622L12.7192 26.6632L12.7181 26.6637L12.716 26.6646C12.9079 26.1243 13.4542 25.7694 14.0472 25.8413C14.4294 25.8876 14.7504 26.1016 14.9456 26.4006C15.2284 26.8298 15.2273 27.4077 14.9008 27.8423C14.5517 28.3071 13.9415 28.46 13.4274 28.2506C13.4289 28.25 13.4305 28.2494 13.4321 28.2487C13.2411 28.1727 13.0751 28.0517 12.9453 27.9002L12.9451 27.9019C12.8867 27.8334 12.8367 27.7597 12.7951 27.6821C12.7242 27.5516 12.676 27.4078 12.6552 27.2565C12.6561 27.2573 12.6571 27.258 12.658 27.2588C12.6514 27.2098 12.6476 27.1604 12.6467 27.1109L10.7931 26.8755C10.7771 26.9292 10.7559 26.982 10.7295 27.033C10.7313 27.0322 10.7331 27.0313 10.7349 27.0304L10.7358 27.0299L10.7366 27.0295L10.7373 27.0291L10.7381 27.0286L10.7394 27.0277L10.7412 27.0266C10.5759 27.3604 10.2128 27.5695 9.82218 27.5211C9.53619 27.4856 9.29817 27.3199 9.16025 27.0908C8.97161 26.7837 8.9788 26.3799 9.20911 26.075C9.44858 25.758 9.85693 25.6437 10.214 25.7629Z" fill="#22CD9A"/>
<path d="M20.2536 35.6099C20.1781 35.4811 20.1268 35.3419 20.0998 35.199C20.062 35.0017 20.0717 34.8045 20.1216 34.6204C20.1646 34.4607 20.2388 34.3076 20.3443 34.1705C20.4261 34.0638 20.5248 33.9694 20.638 33.8918C20.8795 33.7256 21.1654 33.6508 21.4472 33.6678L21.4467 33.6674C21.5227 33.672 21.5976 33.6833 21.6706 33.7009C21.7582 33.7218 21.8439 33.752 21.9265 33.7914L21.9259 33.7915C21.986 33.8203 22.0439 33.8536 22.0989 33.8913L23.9609 31.9988C23.8771 31.9021 23.8031 31.7957 23.7407 31.6806C23.6552 31.5233 23.5949 31.3558 23.5598 31.1841C23.5033 30.9097 23.5131 30.6349 23.5793 30.3777C23.64 30.14 23.7502 29.9122 23.9101 29.7104C24.0435 29.5413 24.2081 29.3951 24.3983 29.2818C24.5837 29.171 24.785 29.0965 24.9918 29.0584C25.2534 29.0097 25.5147 29.0209 25.7601 29.0834C25.9973 29.1434 26.2249 29.2526 26.4267 29.4113C26.5983 29.5458 26.7465 29.7121 26.8611 29.9048C26.9722 30.0912 27.0468 30.2937 27.0845 30.5016C27.131 30.7545 27.1214 31.007 27.0636 31.2451C27.0013 31.5042 26.8806 31.7524 26.701 31.9687C26.5904 32.1024 26.46 32.2208 26.3124 32.3188C26.0425 32.4986 25.7341 32.5978 25.4217 32.6157L25.422 32.616C25.2415 32.6266 25.0633 32.6095 24.8926 32.5677C24.7369 32.5298 24.5852 32.4708 24.4421 32.3906L24.4426 32.3905C24.3856 32.3586 24.3303 32.3236 24.277 32.2857L22.4066 34.1868C22.4512 34.2469 22.491 34.3113 22.5251 34.3798C22.6624 34.6546 22.696 34.9684 22.6248 35.2626C22.5796 35.4494 22.4922 35.6283 22.3622 35.7841C22.2806 35.8824 22.184 35.9691 22.0745 36.0403C21.7747 36.236 21.4107 36.2947 21.0721 36.2151C20.8902 36.1723 20.7157 36.0896 20.5624 35.9668C20.4401 35.8692 20.3347 35.7489 20.2536 35.6099Z" fill="#22CD9A"/>
<path d="M13.1463 34.2231L13.1444 34.2234C13.4097 34.3491 13.6182 34.5591 13.745 34.8115C13.7518 34.8252 13.7584 34.8388 13.7647 34.8527C13.8274 34.9893 13.8666 35.1373 13.8785 35.2904L13.8771 35.2888C13.8824 35.3574 13.8823 35.4265 13.8767 35.4951L16.4516 36.1466C16.4803 36.0649 16.5152 35.9848 16.5562 35.9071C16.778 35.4854 17.1569 35.1753 17.5984 35.0338C17.8637 34.9488 18.1516 34.9246 18.4416 34.9736C18.6325 35.0054 18.8194 35.0683 18.9942 35.1623C19.1914 35.268 19.3638 35.4083 19.5055 35.5733C19.6895 35.7866 19.8152 36.0334 19.8823 36.2924C19.9369 36.5017 19.9542 36.7231 19.9284 36.9471C19.8981 37.2148 19.8077 37.4772 19.6567 37.7124C19.4103 38.0972 19.0259 38.3714 18.5895 38.4835C18.3664 38.5408 18.1296 38.5556 17.8907 38.5212C17.6906 38.4928 17.4942 38.4305 17.3108 38.3342C17.0363 38.1905 16.8089 37.9803 16.6443 37.7296L16.6443 37.73C16.5519 37.5898 16.4812 37.4393 16.4323 37.2834C16.3803 37.1188 16.3516 36.9456 16.3493 36.7686L16.3499 36.7691C16.3489 36.7004 16.3519 36.6316 16.3587 36.5631L13.7723 35.9087C13.7427 35.9763 13.707 36.0418 13.6652 36.1045L13.6656 36.1043L13.6684 36.103C13.3742 36.5484 12.8209 36.7815 12.274 36.6436C11.9684 36.5665 11.716 36.3865 11.5444 36.1498C11.1801 35.6508 11.2171 34.9473 11.6621 34.489C12.0587 34.0806 12.6596 33.9904 13.1463 34.2231Z" fill="#22CD9A"/>
<path d="M6.5822 28.3572C6.40633 27.7374 6.71412 27.0949 7.28076 26.8325C7.54068 26.7113 7.84242 26.6754 8.14219 26.751C8.69423 26.8903 9.07278 27.3656 9.11462 27.9034L9.11339 27.902C9.13699 28.1949 9.05897 28.4807 8.90319 28.7167L8.9045 28.7161C8.84371 28.8081 8.77185 28.8911 8.69127 28.9636C8.64897 29.0018 8.60393 29.0375 8.55634 29.0701L8.55653 29.0696C8.49935 29.1087 8.4391 29.1433 8.37639 29.1729L9.09309 31.728C9.21301 31.705 9.33621 31.6941 9.46101 31.6963C9.65364 31.6996 9.84212 31.734 10.02 31.7959C10.5117 31.9673 10.9221 32.3497 11.1134 32.8667C11.1761 33.035 11.2139 33.2136 11.2235 33.3969C11.2371 33.6502 11.1962 33.8989 11.1089 34.1284C10.9343 34.5877 10.5737 34.9704 10.0914 35.1607C9.88708 35.2418 9.66669 35.286 9.44043 35.2871C9.2365 35.2883 9.03668 35.2545 8.84861 35.1899C8.58498 35.0999 8.3541 34.9529 8.16648 34.7666C7.99546 34.5974 7.85661 34.3918 7.76331 34.1573C7.68448 33.9604 7.64002 33.7484 7.63542 33.5306C7.62875 33.2328 7.69697 32.9431 7.82692 32.6849L7.8264 32.6851C7.91167 32.5151 8.0222 32.3626 8.15202 32.2311C8.25812 32.1233 8.3786 32.0282 8.51162 31.9491L8.51146 31.9496C8.56804 31.9159 8.62647 31.8853 8.68648 31.8579L7.96584 29.2887C7.89374 29.2965 7.82038 29.2983 7.74643 29.2937L7.74754 29.2944C7.21473 29.2624 6.73616 28.8997 6.5822 28.3572Z" fill="#22CD9A"/>
<path d="M11.1746 19.0766C11.3114 18.9944 11.4602 18.9397 11.6131 18.9127C11.7999 18.8792 11.9863 18.8881 12.1613 18.9333C12.3301 18.9766 12.492 19.0545 12.6357 19.1672C12.761 19.2651 12.869 19.3866 12.9521 19.5275C13.0321 19.6627 13.0854 19.8095 13.1119 19.9602C13.1443 20.1424 13.1364 20.3242 13.0938 20.4953C13.0497 20.6744 12.9667 20.8459 12.8447 20.9967C12.7669 21.0932 12.6749 21.179 12.5706 21.2505C12.3291 21.4166 12.0431 21.4915 11.7614 21.4745L11.7618 21.4748C11.6931 21.4707 11.6252 21.461 11.5588 21.4462C11.4641 21.4252 11.3712 21.3934 11.2822 21.3509L11.2828 21.3508C11.2158 21.3187 11.1515 21.281 11.0909 21.238L9.24821 23.1442C9.32079 23.228 9.38606 23.3192 9.44275 23.4169C9.54798 23.5979 9.61904 23.7935 9.65577 23.9943C9.70201 24.2443 9.69349 24.4941 9.63778 24.7299C9.57712 24.9888 9.45822 25.2371 9.28071 25.454C9.15796 25.6047 9.01014 25.7362 8.84119 25.8416C8.64425 25.9648 8.42836 26.0463 8.20632 26.0858C7.94559 26.1328 7.68535 26.1203 7.44107 26.057C7.21316 25.9983 6.99435 25.8941 6.79898 25.7442C6.60723 25.5977 6.44384 25.4118 6.32255 25.1942C6.23132 25.031 6.16747 24.8564 6.13111 24.6773C6.02096 24.1399 6.16536 23.601 6.48908 23.1963C6.61086 23.044 6.75801 22.9108 6.92654 22.8037C7.1891 22.6364 7.4861 22.5438 7.78687 22.5266L7.78653 22.5263C7.96426 22.5159 8.13977 22.5322 8.30809 22.5727C8.46656 22.6105 8.62097 22.6701 8.76655 22.7516L8.76591 22.7518C8.82325 22.7838 8.87884 22.819 8.93241 22.8572L10.7885 20.937C10.7493 20.8823 10.7141 20.824 10.6835 20.7625C10.6335 20.6625 10.5973 20.5574 10.5748 20.4498C10.5322 20.2473 10.5398 20.0443 10.59 19.8549C10.6344 19.6863 10.7134 19.5249 10.8272 19.3818C10.9224 19.2615 11.0394 19.1576 11.1746 19.0766Z" fill="#22CD9A"/>
<path d="M24.0939 27.2389L24.0952 27.2404C24.0716 26.9475 24.1497 26.6616 24.3055 26.4256L24.3041 26.4263C24.3708 26.3252 24.4508 26.2351 24.5411 26.1578C24.5764 26.1274 24.6135 26.0988 24.6523 26.0722L24.6522 26.0726C24.7114 26.0321 24.774 25.9964 24.8392 25.9662L24.0935 23.4183C23.9749 23.4396 23.8532 23.449 23.73 23.4456C23.2736 23.4335 22.8415 23.2464 22.5208 22.9324C22.3461 22.7613 22.2044 22.5526 22.1099 22.314C22.0316 22.1176 21.9875 21.9064 21.983 21.6894C21.978 21.4651 22.0155 21.2453 22.0899 21.0401C22.1775 20.7971 22.3138 20.5828 22.4847 20.4056C22.6581 20.225 22.8713 20.0789 23.1158 19.9822C23.3129 19.9038 23.5249 19.8597 23.7427 19.8556C23.9643 19.851 24.1814 19.888 24.3843 19.961C24.6269 20.0477 24.8411 20.1829 25.0184 20.3527C25.2085 20.534 25.3609 20.7591 25.4582 21.0183C25.5218 21.1869 25.5605 21.366 25.5707 21.5499C25.589 21.8693 25.5206 22.1814 25.3817 22.4574L25.3821 22.4572C25.2997 22.6215 25.1938 22.7694 25.0696 22.8978C24.9604 23.0111 24.8355 23.1108 24.697 23.1932L24.6971 23.1926C24.6341 23.2302 24.5687 23.264 24.5015 23.2937L25.2505 25.8528C25.3201 25.8457 25.3909 25.8442 25.4622 25.8487L25.4611 25.8479C25.9939 25.88 26.4725 26.2426 26.6264 26.7852C26.8041 27.4115 26.488 28.061 25.9099 28.318C25.654 28.4326 25.3593 28.4652 25.0663 28.3913C24.5143 28.252 24.1357 27.7767 24.0939 27.2389Z" fill="#22CD9A"/>
<path d="M26.0951 24.9587C26.7186 25.2844 27.4882 25.0429 27.8139 24.4194C28.1396 23.7958 27.8982 23.0262 27.2746 22.7005C26.651 22.3748 25.8815 22.6163 25.5557 23.2398C25.23 23.8634 25.4715 24.633 26.0951 24.9587Z" fill="#22CD9A"/>
<path d="M26.3408 34.9725C26.0151 35.596 25.2456 35.8375 24.622 35.5118C23.9984 35.1861 23.757 34.4165 24.0827 33.793C24.4084 33.1694 25.1779 32.9279 25.8015 33.2536C26.4251 33.5793 26.6665 34.3489 26.3408 34.9725Z" fill="#22CD9A"/>
<path d="M14.5992 39.6537C15.2228 39.9794 15.9924 39.738 16.3181 39.1144C16.6438 38.4908 16.4023 37.7213 15.7788 37.3955C15.1552 37.0698 14.3856 37.3113 14.0599 37.9349C13.7342 38.5584 13.9757 39.328 14.5992 39.6537Z" fill="#22CD9A"/>
<path d="M7.62794 32.2061C7.30222 32.8297 6.53267 33.0712 5.90909 32.7455C5.28552 32.4197 5.04406 31.6502 5.36977 31.0266C5.6955 30.403 6.46504 30.1616 7.08861 30.4873C7.7122 30.813 7.95365 31.5826 7.62794 32.2061Z" fill="#22CD9A"/>
<path d="M7.39388 22.0308C8.01746 22.3565 8.78701 22.115 9.11273 21.4915C9.43845 20.8679 9.19698 20.0983 8.57341 19.7726C7.94984 19.4469 7.18028 19.6884 6.85457 20.3119C6.52886 20.9355 6.77031 21.7051 7.39388 22.0308Z" fill="#22CD9A"/>
<path d="M19.6377 25.49C20.0664 25.7139 20.5954 25.5479 20.8193 25.1192C21.0432 24.6906 20.8772 24.1615 20.4486 23.9376C20.0199 23.7137 19.4908 23.8797 19.2669 24.3084C19.043 24.737 19.209 25.2661 19.6377 25.49Z" fill="#22CD9A"/>
<path d="M19.2773 32.0846C19.7895 31.9239 20.0744 31.3784 19.9137 30.8662C19.753 30.354 19.2075 30.0691 18.6953 30.2298C18.1831 30.3905 17.8982 30.936 18.0589 31.4482C18.2196 31.9604 18.7651 32.2453 19.2773 32.0846Z" fill="#22CD9A"/>
<path d="M12.91 30.6604C13.3582 30.8945 13.9112 30.721 14.1453 30.2728C14.3794 29.8247 14.2058 29.2717 13.7577 29.0376C13.3096 28.8035 12.7565 28.977 12.5225 29.4252C12.2884 29.8733 12.4619 30.4263 12.91 30.6604Z" fill="#22CD9A"/>
<path d="M15.065 24.1129C14.7912 24.637 14.1444 24.84 13.6202 24.5662C13.0961 24.2924 12.8931 23.6456 13.1669 23.1215C13.4407 22.5973 14.0875 22.3943 14.6117 22.6681C15.1358 22.9419 15.3388 23.5888 15.065 24.1129Z" fill="#22CD9A"/>
<path d="M22.013 26.4293C22.2035 26.5288 22.4386 26.4551 22.5381 26.2646C22.6376 26.0741 22.5639 25.839 22.3734 25.7395C22.1829 25.64 21.9478 25.7138 21.8483 25.9043C21.7488 26.0947 21.8225 26.3298 22.013 26.4293Z" fill="#22CD9A"/>
<path d="M19.9892 22.4158C19.8473 22.6873 19.5123 22.7924 19.2408 22.6506C18.9694 22.5088 18.8642 22.1737 19.006 21.9023C19.1478 21.6308 19.4829 21.5257 19.7544 21.6675C20.0258 21.8093 20.131 22.1443 19.9892 22.4158Z" fill="#22CD9A"/>
<path d="M15.6431 22.2241C15.9357 22.3769 16.2967 22.2636 16.4496 21.971C16.6024 21.6784 16.4891 21.3174 16.1965 21.1645C15.9039 21.0117 15.5429 21.125 15.3901 21.4176C15.2372 21.7102 15.3505 22.0712 15.6431 22.2241Z" fill="#22CD9A"/>
<path d="M11.9247 24.9254C11.7731 25.2157 11.4149 25.3281 11.1246 25.1765C10.8342 25.0248 10.7218 24.6666 10.8735 24.3763C11.0251 24.086 11.3834 23.9736 11.6737 24.1252C11.964 24.2768 12.0764 24.6351 11.9247 24.9254Z" fill="#22CD9A"/>
<path d="M13.862 31.9445C14.167 32.1599 14.2398 32.5817 14.0245 32.8868C13.8092 33.1919 13.3873 33.2646 13.0822 33.0493C12.7771 32.834 12.7044 32.4121 12.9197 32.1071C13.135 31.802 13.5569 31.7292 13.862 31.9445Z" fill="#22CD9A"/>
<path d="M11.0695 29.3307C10.9399 29.5789 10.6336 29.675 10.3854 29.5453C10.1373 29.4157 10.0412 29.1094 10.1708 28.8612C10.3004 28.613 10.6067 28.5169 10.8549 28.6466C11.1031 28.7762 11.1992 29.0825 11.0695 29.3307Z" fill="#22CD9A"/>
<path d="M17.6728 34.2434C17.9309 34.3782 18.2494 34.2783 18.3842 34.0202C18.519 33.7621 18.4191 33.4436 18.161 33.3088C17.9029 33.174 17.5844 33.2739 17.4496 33.532C17.3148 33.7901 17.4147 34.1086 17.6728 34.2434Z" fill="#22CD9A"/>
<path d="M21.8454 31.0352C21.6914 31.3302 21.3274 31.4444 21.0324 31.2903C20.7374 31.1363 20.6232 30.7722 20.7773 30.4773C20.9314 30.1823 21.2954 30.0681 21.5903 30.2222C21.8853 30.3762 21.9995 30.7403 21.8454 31.0352Z" fill="#22CD9A"/>
<path d="M16.019 28.5647C16.3799 28.7532 16.8252 28.6135 17.0137 28.2526C17.2022 27.8917 17.0625 27.4464 16.7016 27.2579C16.3407 27.0694 15.8954 27.2092 15.7069 27.57C15.5184 27.9309 15.6581 28.3762 16.019 28.5647Z" fill="#22CD9A"/>
<path d="M21.7426 39.0242C21.6169 39.2648 21.3199 39.358 21.0793 39.2323C20.8387 39.1066 20.7455 38.8097 20.8712 38.569C20.9969 38.3284 21.2938 38.2353 21.5345 38.3609C21.7751 38.4866 21.8683 38.7836 21.7426 39.0242Z" fill="#22CD9A"/>
<path d="M27.8781 27.6763C28.1262 27.8059 28.4325 27.7098 28.5621 27.4617C28.6918 27.2135 28.5957 26.9072 28.3475 26.7776C28.0993 26.6479 27.793 26.744 27.6634 26.9922C27.5338 27.2404 27.6299 27.5467 27.8781 27.6763Z" fill="#22CD9A"/>
<path d="M22.9703 17.5106C22.8412 17.7578 22.5361 17.8536 22.2889 17.7244C22.0416 17.5953 21.9459 17.2902 22.075 17.043C22.2042 16.7958 22.5093 16.7 22.7565 16.8292C23.0037 16.9583 23.0994 17.2634 22.9703 17.5106Z" fill="#22CD9A"/>
<path d="M10.8473 18.1707C11.1017 18.3035 11.4156 18.205 11.5484 17.9507C11.6813 17.6963 11.5828 17.3824 11.3284 17.2496C11.0741 17.1167 10.7602 17.2152 10.6273 17.4696C10.4945 17.7239 10.593 18.0378 10.8473 18.1707Z" fill="#22CD9A"/>
<path d="M5.74972 27.1239C5.61905 27.3741 5.31033 27.4709 5.06016 27.3403C4.80999 27.2096 4.71313 26.9009 4.84381 26.6507C4.97446 26.4006 5.2832 26.3037 5.53335 26.4344C5.78352 26.565 5.8804 26.8738 5.74972 27.1239Z" fill="#22CD9A"/>
<path d="M10.164 37.8949C10.406 38.0213 10.7047 37.9276 10.8312 37.6855C10.9576 37.4435 10.8639 37.1448 10.6218 37.0184C10.3798 36.8919 10.0811 36.9857 9.95462 37.2277C9.82819 37.4697 9.92192 37.7685 10.164 37.8949Z" fill="#22CD9A"/>
<path d="M32.6688 3.29521L27.3989 0.542509C25.2061 -0.602954 22.4756 0.121003 21.1826 2.19109C20.6399 3.0599 20.4031 4.0817 20.4884 5.08547L17.4255 10.9491C10.7411 10.6329 4.38872 14.4046 1.5219 20.5997C-2.10766 28.4427 0.963646 37.8869 8.51336 42.1016C8.65044 42.1779 8.78956 42.2528 8.9278 42.3252C8.92851 42.3256 8.92868 42.3256 8.92939 42.3259C9.85164 42.8075 10.8058 43.1948 11.7794 43.494C9.38772 43.765 7.83056 44.2056 7.83056 44.7031C7.83056 45.5274 12.1 46.1955 17.3666 46.1955C22.6331 46.1955 26.9026 45.5274 26.9026 44.7031C26.9026 44.1307 24.8428 43.6339 21.821 43.3834C25.9682 42.0242 29.3602 39.1549 31.3849 35.279C34.4241 29.4602 33.7579 22.5168 29.8266 17.4234L32.8882 11.5622C33.7607 11.0587 34.4641 10.2807 34.8669 9.33908C35.8274 7.09515 34.8616 4.44067 32.6688 3.29521ZM31.5407 7.91591C31.3996 8.24556 31.1203 8.46319 30.804 8.54022C30.517 8.61017 30.2624 8.77483 30.1256 9.03663L29.1745 10.8573L27.1041 9.77577C26.8163 9.62562 26.4611 9.73691 26.3108 10.0249C26.1605 10.3125 26.2719 10.6679 26.5597 10.8181L28.6302 11.8996L28.0442 13.0214L26.9569 12.4536C26.6692 12.3031 26.314 12.4147 26.1636 12.7023C26.0133 12.9903 26.1248 13.3453 26.4126 13.4955L27.4998 14.0636L25.7786 17.3587C25.5892 17.7216 25.6515 18.1653 25.9375 18.4575C29.7813 22.3787 30.8577 28.4734 28.178 33.6039C24.7906 40.0891 16.7083 42.5323 10.2768 38.9422C4.3836 35.6528 1.97079 28.2444 4.80519 22.1193C7.35535 16.6086 13.1871 13.781 18.8002 14.7293C19.2034 14.7971 19.6031 14.5947 19.7925 14.2318L24.1396 5.90977C24.2763 5.64796 24.2658 5.34517 24.1594 5.06957C24.042 4.76572 24.061 4.41205 24.251 4.10819C24.5567 3.61885 25.2127 3.48247 25.7239 3.74922L30.9937 6.50193C31.5048 6.76904 31.7677 7.38523 31.5407 7.91591Z" fill="#182028"/>
<path d="M53.7499 33.8472C51.7133 33.8472 49.8384 33.3713 48.1254 32.4196C46.4123 31.4489 45.0609 30.1165 44.0711 28.4225C43.0814 26.7094 42.5865 24.806 42.5865 22.7123C42.5865 20.5044 43.0814 18.5534 44.0711 16.8594C45.0609 15.1653 46.3933 13.8615 48.0683 12.9479C49.7433 12.0152 51.58 11.5489 53.5786 11.5489C55.501 11.5489 57.1189 11.8915 58.4323 12.5767C59.7646 13.2429 61.0209 14.1851 62.201 15.4033C62.2391 15.4413 62.2962 15.4604 62.3723 15.4604C62.4865 15.4604 62.6864 15.3747 62.9719 15.2034L63.3145 15.6317L59.3745 18.7437L59.0318 18.3155C59.146 18.2393 59.2317 18.1441 59.2888 18.0299C59.3649 17.8967 59.3649 17.8015 59.2888 17.7444C58.4894 16.964 57.6519 16.374 56.7763 15.9743C55.9198 15.5555 54.8729 15.3462 53.6357 15.3462C52.3414 15.3462 51.1518 15.6697 50.0668 16.3169C48.9819 16.945 48.1254 17.8206 47.4972 18.9436C46.8691 20.0666 46.5551 21.3228 46.5551 22.7123C46.5551 24.0447 46.8882 25.2629 47.5543 26.3668C48.2205 27.4518 49.1056 28.3083 50.2096 28.9364C51.3136 29.5645 52.4937 29.8786 53.7499 29.8786C54.93 29.8786 55.9388 29.6787 56.7763 29.279C57.6138 28.8603 58.4037 28.2417 59.146 27.4232L59.2031 27.309C59.2031 27.2138 59.1556 27.1092 59.0604 26.995C58.9843 26.8617 58.8986 26.7665 58.8034 26.7094L59.1746 26.3097L63.4287 29.8786L63.0861 30.3069C62.9719 30.2117 62.8291 30.126 62.6578 30.0499C62.4865 29.9738 62.3723 29.9738 62.3152 30.0499C61.1161 31.3442 59.8598 32.3054 58.5465 32.9336C57.2331 33.5426 55.6343 33.8472 53.7499 33.8472Z" fill="#182028"/>
<path d="M79.036 32.7051C79.036 32.8003 79.1027 32.8765 79.2359 32.9336C79.3882 32.9907 79.5404 33.0192 79.6927 33.0192V33.5617H74.6677V33.0192C74.82 33.0192 74.9628 32.9907 75.096 32.9336C75.2483 32.8765 75.3244 32.8003 75.3244 32.7051V26.7665C75.3244 25.7958 75.0865 24.9678 74.6106 24.2826C74.1348 23.5784 73.421 23.2262 72.4693 23.2262C71.4986 23.2262 70.6896 23.5498 70.0425 24.197C69.3953 24.8441 69.0717 25.7768 69.0717 26.995V32.7051C69.0717 32.8003 69.1384 32.8765 69.2716 32.9336C69.4239 32.9907 69.5666 33.0192 69.6999 33.0192V33.5617H64.8747V33.0192C65.008 33.0192 65.1412 32.9907 65.2745 32.9336C65.4267 32.8765 65.5029 32.8003 65.5029 32.7051V13.005C65.5029 12.9098 65.4267 12.8337 65.2745 12.7766C65.1412 12.7195 65.008 12.6909 64.8747 12.6909V12.1484H69.6999V12.6909C69.5666 12.6909 69.4239 12.7195 69.2716 12.7766C69.1384 12.8337 69.0717 12.9098 69.0717 13.005V21.713C69.5666 21.2372 70.1662 20.8565 70.8705 20.571C71.5938 20.2855 72.317 20.1427 73.0403 20.1427C74.2775 20.1427 75.3434 20.3997 76.238 20.9136C77.1517 21.4275 77.8464 22.1223 78.3223 22.9978C78.7981 23.8543 79.036 24.8156 79.036 25.8815V32.7051Z" fill="#182028"/>
<path d="M88.9812 19.8287C90.4468 19.8287 91.7125 20.1522 92.7784 20.7994C93.8443 21.4275 94.6533 22.284 95.2053 23.369C95.7573 24.4539 96.0332 25.6531 96.0332 26.9664C96.0332 27.3661 96.0047 27.7658 95.9476 28.1655H85.4979C85.5741 29.0792 85.9738 29.7929 86.6971 30.3069C87.4204 30.8208 88.2864 31.0777 89.2952 31.0777C89.9804 31.0777 90.5515 30.9826 91.0083 30.7922C91.4841 30.6019 91.9029 30.3164 92.2645 29.9357C92.3026 29.8596 92.3216 29.812 92.3216 29.7929C92.3216 29.7168 92.2931 29.6407 92.236 29.5645C92.1789 29.4694 92.1218 29.4028 92.0647 29.3647L92.4073 28.9364L95.5764 31.4204L95.2624 31.8486C94.9769 31.6773 94.777 31.6583 94.6628 31.7915C93.3304 33.3904 91.5412 34.1898 89.2952 34.1898C87.8486 34.1898 86.5734 33.8757 85.4694 33.2476C84.3654 32.6005 83.5089 31.7439 82.8998 30.678C82.3097 29.5931 82.0147 28.394 82.0147 27.0806C82.0147 25.6911 82.3097 24.4444 82.8998 23.3404C83.4898 22.2365 84.3083 21.3799 85.3552 20.7708C86.4211 20.1427 87.6297 19.8287 88.9812 19.8287ZM92.6071 25.5103C92.531 24.7299 92.1313 24.0732 91.408 23.5403C90.7037 22.9883 89.9043 22.7123 89.0097 22.7123C88.1151 22.7123 87.3442 22.9883 86.6971 23.5403C86.0499 24.0732 85.6597 24.7299 85.5265 25.5103H92.6071Z" fill="#182028"/>
<path d="M119.407 32.7051C119.407 32.8003 119.474 32.8765 119.607 32.9336C119.759 32.9907 119.911 33.0192 120.064 33.0192V33.5617H115.039V33.0192C115.191 33.0192 115.334 32.9907 115.467 32.9336C115.619 32.8765 115.695 32.8003 115.695 32.7051V26.7665C115.695 24.4063 114.915 23.2262 113.354 23.2262C112.593 23.2262 112.003 23.5403 111.584 24.1684C111.165 24.7965 110.956 25.7387 110.956 26.995V32.7051C110.956 32.8003 111.022 32.8765 111.156 32.9336C111.308 32.9907 111.46 33.0192 111.612 33.0192V33.5617H106.616V33.0192C106.768 33.0192 106.911 32.9907 107.044 32.9336C107.197 32.8765 107.273 32.8003 107.273 32.7051V26.7665C107.273 25.7197 107.111 24.8727 106.787 24.2255C106.464 23.5593 105.864 23.2262 104.989 23.2262C104.303 23.2262 103.751 23.4832 103.333 23.9971C102.933 24.492 102.695 25.2438 102.619 26.2526V32.7051C102.619 32.8003 102.695 32.8765 102.847 32.9336C103 32.9907 103.142 33.0192 103.276 33.0192V33.5617H98.1935V33.0192C98.3268 33.0192 98.4695 32.9907 98.6218 32.9336C98.7741 32.8765 98.8502 32.8003 98.8502 32.7051V21.2848C98.8502 21.1896 98.7741 21.1135 98.6218 21.0563C98.4886 20.9992 98.3553 20.9707 98.2221 20.9707V20.4282H102.619V21.1991C103.38 20.4948 104.351 20.1427 105.531 20.1427C106.597 20.1427 107.511 20.3521 108.272 20.7708C109.052 21.1706 109.662 21.7321 110.099 22.4553C110.442 21.7511 110.965 21.1896 111.67 20.7708C112.393 20.3521 113.202 20.1427 114.096 20.1427C115.886 20.1427 117.218 20.6757 118.094 21.7416C118.969 22.8075 119.407 24.1874 119.407 25.8815V32.7051Z" fill="#182028"/>
<path d="M147.57 32.7051C147.57 32.8003 147.636 32.8765 147.769 32.9336C147.922 32.9907 148.074 33.0192 148.226 33.0192V33.5617H143.23V33.0192C143.382 33.0192 143.525 32.9907 143.658 32.9336C143.81 32.8765 143.886 32.8003 143.886 32.7051V16.3454L135.521 34.6466L127.184 16.2883V32.7051C127.184 32.8003 127.251 32.8765 127.384 32.9336C127.536 32.9907 127.689 33.0192 127.841 33.0192V33.5617H122.816V33.0192C122.968 33.0192 123.111 32.9907 123.244 32.9336C123.396 32.8765 123.473 32.8003 123.473 32.7051V13.005C123.473 12.9098 123.396 12.8337 123.244 12.7766C123.111 12.7195 122.978 12.6909 122.844 12.6909V12.1484H130.211V12.6909C129.982 12.6909 129.83 12.748 129.754 12.8622C129.697 12.9574 129.697 13.0716 129.754 13.2048L135.55 26.6809L141.431 13.2048C141.469 13.0906 141.412 12.9764 141.26 12.8622C141.108 12.748 140.917 12.6909 140.689 12.6909V12.1484H148.198V12.6909C148.064 12.6909 147.922 12.7195 147.769 12.7766C147.636 12.8337 147.57 12.9098 147.57 13.005V32.7051Z" fill="#22CD9A"/>
<path d="M166.42 20.9707C166.287 20.9707 166.144 20.9992 165.992 21.0563C165.858 21.1135 165.792 21.1896 165.792 21.2848V32.7051C165.792 32.8003 165.858 32.8765 165.992 32.9336C166.144 32.9907 166.287 33.0192 166.42 33.0192V33.5617H162.194V31.9914C160.995 33.2857 159.482 33.9328 157.655 33.9328C156.265 33.9328 155.038 33.6568 153.972 33.1049C152.925 32.5338 152.106 31.7249 151.516 30.678C150.945 29.6312 150.66 28.413 150.66 27.0235C150.66 25.6721 150.974 24.4729 151.602 23.4261C152.249 22.3602 153.106 21.5417 154.172 20.9707C155.237 20.3806 156.398 20.0856 157.655 20.0856C159.482 20.0856 160.995 20.7899 162.194 22.1984V20.4282H166.42V20.9707ZM158.083 30.9064C158.863 30.9064 159.558 30.7351 160.167 30.3925C160.795 30.0309 161.281 29.5645 161.623 28.9935C161.966 28.4035 162.137 27.7753 162.137 27.1092C162.137 25.9671 161.757 25.0249 160.995 24.2826C160.253 23.5403 159.282 23.1691 158.083 23.1691C156.922 23.1691 155.961 23.5308 155.199 24.2541C154.457 24.9773 154.086 25.9005 154.086 27.0235C154.086 28.2036 154.467 29.1458 155.228 29.85C156.008 30.5543 156.96 30.9064 158.083 30.9064Z" fill="#22CD9A"/>
<path d="M177.835 19.5717V24.1684H177.292C177.292 24.0352 177.264 23.8829 177.207 23.7116C177.15 23.5403 177.074 23.4451 176.978 23.4261H176.779C176.188 23.4261 175.589 23.5974 174.98 23.94C174.39 24.2636 173.895 24.7014 173.495 25.2533C173.115 25.7863 172.924 26.3573 172.924 26.9664V32.7051C172.924 32.8003 172.991 32.8765 173.124 32.9336C173.276 32.9907 173.419 33.0192 173.552 33.0192V33.5617H168.756V33.0192C168.889 33.0192 169.022 32.9907 169.155 32.9336C169.308 32.8765 169.384 32.8003 169.384 32.7051V21.2848C169.384 21.1896 169.308 21.1135 169.155 21.0563C169.022 20.9992 168.889 20.9707 168.756 20.9707V20.4282H172.924V21.6559C173.438 21.1801 174.057 20.7994 174.78 20.5139C175.503 20.2284 176.227 20.0856 176.95 20.0856H177.007C177.102 20.0856 177.169 20.0285 177.207 19.9143C177.264 19.8001 177.292 19.6859 177.292 19.5717H177.835Z" fill="#22CD9A"/>
<path d="M192.4 32.8765C192.476 32.9716 192.705 33.0192 193.085 33.0192V33.5617H187.86V33.0192C188.089 33.0192 188.203 32.9716 188.203 32.8765C188.203 32.8384 188.165 32.7623 188.089 32.648L185.376 28.9079L183.835 30.7066V32.7051C183.835 32.8003 183.901 32.8765 184.035 32.9336C184.187 32.9907 184.33 33.0192 184.463 33.0192V33.5617H179.581V33.0192C179.714 33.0192 179.847 32.9907 179.98 32.9336C180.133 32.8765 180.209 32.8003 180.209 32.7051V13.005C180.209 12.9098 180.133 12.8337 179.98 12.7766C179.847 12.7195 179.714 12.6909 179.581 12.6909V12.1484H184.463V12.6909C184.33 12.6909 184.187 12.7195 184.035 12.7766C183.901 12.8337 183.835 12.9098 183.835 13.005V25.6245L187.603 21.2848L187.661 21.1706C187.661 21.0373 187.489 20.9707 187.147 20.9707V20.4282H192.857V20.9707H192.6C192.352 20.9707 192.191 21.0088 192.114 21.0849L187.518 26.4239L192.4 32.8765Z" fill="#22CD9A"/>
<path d="M201.735 19.8287C203.201 19.8287 204.467 20.1522 205.533 20.7994C206.598 21.4275 207.407 22.284 207.959 23.369C208.511 24.4539 208.787 25.6531 208.787 26.9664C208.787 27.3661 208.759 27.7658 208.702 28.1655H198.252C198.328 29.0792 198.728 29.7929 199.451 30.3069C200.174 30.8208 201.04 31.0777 202.049 31.0777C202.735 31.0777 203.306 30.9826 203.762 30.7922C204.238 30.6019 204.657 30.3164 205.019 29.9357C205.057 29.8596 205.076 29.812 205.076 29.7929C205.076 29.7168 205.047 29.6407 204.99 29.5645C204.933 29.4694 204.876 29.4028 204.819 29.3647L205.161 28.9364L208.331 31.4204L208.016 31.8486C207.731 31.6773 207.531 31.6583 207.417 31.7915C206.085 33.3904 204.295 34.1898 202.049 34.1898C200.603 34.1898 199.327 33.8757 198.223 33.2476C197.119 32.6005 196.263 31.7439 195.654 30.678C195.064 29.5931 194.769 28.394 194.769 27.0806C194.769 25.6911 195.064 24.4444 195.654 23.3404C196.244 22.2365 197.062 21.3799 198.109 20.7708C199.175 20.1427 200.384 19.8287 201.735 19.8287ZM205.361 25.5103C205.285 24.7299 204.885 24.0732 204.162 23.5403C203.458 22.9883 202.658 22.7123 201.764 22.7123C200.869 22.7123 200.098 22.9883 199.451 23.5403C198.804 24.0732 198.414 24.7299 198.281 25.5103H205.361Z" fill="#22CD9A"/>
<path d="M218.599 19.8572V24.197H218.057C218.057 24.0637 218.028 23.94 217.971 23.8258C217.914 23.6926 217.838 23.6259 217.743 23.6259H215.887V32.7051C215.887 32.8003 215.954 32.8765 216.087 32.9336C216.22 32.9907 216.353 33.0192 216.487 33.0192V33.5617H211.833V33.0192C211.966 33.0192 212.099 32.9907 212.232 32.9336C212.366 32.8765 212.432 32.8003 212.432 32.7051V23.6259H211.062C210.967 23.6259 210.891 23.6926 210.833 23.8258C210.776 23.94 210.748 24.0637 210.748 24.197H210.205V19.8572H210.748C210.748 19.9904 210.776 20.1237 210.833 20.2569C210.891 20.3711 210.967 20.4282 211.062 20.4282H212.432V17.0878C212.432 16.9926 212.366 16.9165 212.232 16.8594C212.099 16.8023 211.966 16.7737 211.833 16.7737V16.2312H216.487V16.7737C216.353 16.7737 216.22 16.8023 216.087 16.8594C215.954 16.9165 215.887 16.9926 215.887 17.0878V20.4282H217.743C217.838 20.4282 217.914 20.3711 217.971 20.2569C218.028 20.1237 218.057 19.9904 218.057 19.8572H218.599Z" fill="#22CD9A"/>
<path d="M42.5865 44.391H52.6917V45.1128H42.5865V44.391Z" fill="#182028"/>
<path d="M184.161 44.391H218.599V45.1128H184.161V44.391Z" fill="#182028"/>
<path d="M59.9973 43.7237H61.152C61.1047 43.3717 61.0038 43.0589 60.8494 42.7851C60.6971 42.5093 60.5026 42.2767 60.2659 42.0873C60.0292 41.8959 59.7595 41.7508 59.4569 41.652C59.1544 41.5532 58.8271 41.5038 58.4751 41.5038C57.9234 41.5038 57.4294 41.6324 56.9931 41.8897C56.5567 42.147 56.2119 42.5185 55.9587 43.0043C55.7055 43.488 55.579 44.0706 55.579 44.7519C55.579 45.4311 55.7045 46.0137 55.9556 46.4994C56.2068 46.9852 56.5505 47.3568 56.9869 47.6141C57.4233 47.8713 57.9193 48 58.4751 48C58.8518 48 59.1945 47.9444 59.5033 47.8333C59.812 47.7201 60.0817 47.5636 60.3122 47.364C60.5427 47.1622 60.729 46.9296 60.871 46.6662C61.0151 46.4027 61.1088 46.1207 61.152 45.8202L59.9973 45.814C59.9623 45.9993 59.8985 46.1639 59.8058 46.308C59.7153 46.4521 59.6031 46.5735 59.4693 46.6723C59.3375 46.7711 59.1883 46.8463 59.0216 46.8977C58.8569 46.9471 58.6799 46.9718 58.4905 46.9718C58.1488 46.9718 57.8452 46.8885 57.5797 46.7217C57.3162 46.553 57.1083 46.3039 56.956 45.9746C56.8057 45.6432 56.7306 45.2356 56.7306 44.7519C56.7306 44.2764 56.8057 43.874 56.956 43.5446C57.1063 43.2132 57.3142 42.9621 57.5797 42.7913C57.8452 42.6184 58.1499 42.5319 58.4936 42.5319C58.6871 42.5319 58.8672 42.5587 59.0339 42.6122C59.2027 42.6637 59.353 42.7408 59.4847 42.8438C59.6165 42.9467 59.7266 43.0722 59.8151 43.2204C59.9036 43.3666 59.9643 43.5343 59.9973 43.7237Z" fill="#182028"/>
<path d="M62.8966 41.5902V47.9135H64.0421V45.2274H66.9722V47.9135H68.1207V41.5902H66.9722V44.2671H64.0421V41.5902H62.8966Z" fill="#182028"/>
<path d="M70.0621 47.9135V41.5902H74.1748V42.5504H71.2076V44.2671H73.9617V45.2274H71.2076V46.9533H74.1995V47.9135H70.0621Z" fill="#182028"/>
<path d="M77.4408 41.5902H76.039V47.9135H77.1382V43.5601H77.1968L78.9444 47.895H79.7657L81.5132 43.5693H81.5719V47.9135H82.6711V41.5902H81.2693L79.3921 46.1722H79.318L77.4408 41.5902Z" fill="#182028"/>
<path d="M85.7595 41.5902V47.9135H84.614V41.5902H85.7595Z" fill="#182028"/>
<path d="M91.9533 43.7237H93.108C93.0607 43.3717 92.9598 43.0589 92.8054 42.7851C92.6531 42.5093 92.4586 42.2767 92.2219 42.0873C91.9852 41.8959 91.7155 41.7508 91.4129 41.652C91.1104 41.5532 90.7831 41.5038 90.4311 41.5038C89.8795 41.5038 89.3854 41.6324 88.9491 41.8897C88.5127 42.147 88.1679 42.5185 87.9147 43.0043C87.6616 43.488 87.535 44.0706 87.535 44.7519C87.535 45.4311 87.6605 46.0137 87.9116 46.4994C88.1628 46.9852 88.5065 47.3568 88.9429 47.6141C89.3793 47.8713 89.8753 48 90.4311 48C90.8078 48 91.1505 47.9444 91.4593 47.8333C91.768 47.7201 92.0377 47.5636 92.2682 47.364C92.4987 47.1622 92.685 46.9296 92.8271 46.6662C92.9711 46.4027 93.0648 46.1207 93.108 45.8202L91.9533 45.814C91.9183 45.9993 91.8545 46.1639 91.7618 46.308C91.6713 46.4521 91.5591 46.5735 91.4253 46.6723C91.2936 46.7711 91.1443 46.8463 90.9776 46.8977C90.8129 46.9471 90.6359 46.9718 90.4465 46.9718C90.1048 46.9718 89.8012 46.8885 89.5357 46.7217C89.2722 46.553 89.0643 46.3039 88.912 45.9746C88.7618 45.6432 88.6866 45.2356 88.6866 44.7519C88.6866 44.2764 88.7618 43.874 88.912 43.5446C89.0623 43.2132 89.2702 42.9621 89.5357 42.7913C89.8012 42.6184 90.1059 42.5319 90.4496 42.5319C90.6431 42.5319 90.8232 42.5587 90.99 42.6122C91.1587 42.6637 91.309 42.7408 91.4407 42.8438C91.5725 42.9467 91.6826 43.0722 91.7711 43.2204C91.8596 43.3666 91.9203 43.5343 91.9533 43.7237Z" fill="#182028"/>
<path fill-rule="evenodd" clip-rule="evenodd" d="M95.5882 47.9135H94.3655L96.5917 41.5902H98.0058L100.235 47.9135H99.0123L98.4884 46.3543H96.1111L95.5882 47.9135ZM97.3234 42.887L98.1793 45.4342H96.4197L97.274 42.887H97.3234Z" fill="#182028"/>
<path d="M101.763 41.5902V47.9135H105.694V46.9533H102.909V41.5902H101.763Z" fill="#182028"/>
<path d="M110.236 41.5902H111.638L113.515 46.1722H113.589L115.466 41.5902H116.868V47.9135H115.769V43.5693H115.71L113.963 47.895H113.141L111.394 43.5601H111.335V47.9135H110.236V41.5902Z" fill="#182028"/>
<path fill-rule="evenodd" clip-rule="evenodd" d="M118.4 47.9135H119.623L120.146 46.3543H122.523L123.047 47.9135H124.27L122.041 41.5902H120.626L118.4 47.9135ZM122.214 45.4342L121.358 42.887H121.309L120.454 45.4342H122.214Z" fill="#182028"/>
<path fill-rule="evenodd" clip-rule="evenodd" d="M125.798 47.9135V41.5902H128.169C128.655 41.5902 129.063 41.6746 129.392 41.8434C129.724 42.0122 129.974 42.2489 130.142 42.5535C130.313 42.8561 130.399 43.2091 130.399 43.6126C130.399 44.0181 130.312 44.37 130.139 44.6685C129.968 44.9649 129.716 45.1944 129.383 45.357C129.344 45.3758 129.304 45.3935 129.263 45.4101L130.63 47.9135H129.352L128.109 45.5979H126.944V47.9135H125.798ZM126.944 44.6469H128C128.284 44.6469 128.516 44.6078 128.697 44.5296C128.879 44.4493 129.012 44.333 129.099 44.1807C129.187 44.0263 129.232 43.8369 129.232 43.6126C129.232 43.3882 129.187 43.1968 129.099 43.0383C129.01 42.8777 128.875 42.7563 128.694 42.6739C128.513 42.5896 128.28 42.5474 127.993 42.5474H126.944V44.6469Z" fill="#182028"/>
<path d="M132.149 41.5902V47.9135H133.294V46.0301L133.995 45.2027L135.882 47.9135H137.259L134.792 44.4277L137.237 41.5902H135.838L133.371 44.4956H133.294V41.5902H132.149Z" fill="#182028"/>
<path d="M138.728 47.9135V41.5902H142.841V42.5504H139.874V44.2671H142.628V45.2274H139.874V46.9533H142.866V47.9135H138.728Z" fill="#182028"/>
<path d="M144.427 41.5902V42.5504H146.382V47.9135H147.518V42.5504H149.472V41.5902H144.427Z" fill="#182028"/>
<path fill-rule="evenodd" clip-rule="evenodd" d="M151.141 47.9135V41.5902H153.512C153.998 41.5902 154.405 41.6808 154.734 41.8619C155.066 42.0431 155.316 42.2921 155.485 42.6091C155.656 42.924 155.741 43.2822 155.741 43.6836C155.741 44.0891 155.656 44.4493 155.485 44.7642C155.314 45.0792 155.062 45.3272 154.728 45.5083C154.395 45.6874 153.984 45.777 153.496 45.777H152.286V47.9135H151.141ZM153.342 44.8352H152.286V42.5474H153.336C153.622 42.5474 153.856 42.5957 154.037 42.6925C154.22 42.7872 154.355 42.9199 154.441 43.0908C154.53 43.2616 154.574 43.4592 154.574 43.6836C154.574 43.9079 154.53 44.1066 154.441 44.2795C154.355 44.4524 154.221 44.5882 154.04 44.687C153.859 44.7858 153.626 44.8352 153.342 44.8352Z" fill="#182028"/>
<path d="M157.432 41.5902V47.9135H161.362V46.9533H158.577V41.5902H157.432Z" fill="#182028"/>
<path fill-rule="evenodd" clip-rule="evenodd" d="M164.102 47.9135H162.879L165.105 41.5902H166.519L168.748 47.9135H167.526L167.002 46.3543H164.624L164.102 47.9135ZM165.837 42.887L166.693 45.4342H164.933L165.787 42.887H165.837Z" fill="#182028"/>
<path d="M174.237 43.7237H175.392C175.345 43.3717 175.244 43.0589 175.09 42.7851C174.937 42.5093 174.743 42.2767 174.506 42.0873C174.269 41.8959 174 41.7508 173.697 41.652C173.394 41.5532 173.067 41.5038 172.715 41.5038C172.164 41.5038 171.67 41.6324 171.233 41.8897C170.797 42.147 170.452 42.5185 170.199 43.0043C169.946 43.488 169.819 44.0706 169.819 44.7519C169.819 45.4311 169.945 46.0137 170.196 46.4994C170.447 46.9852 170.791 47.3568 171.227 47.6141C171.663 47.8713 172.159 48 172.715 48C173.092 48 173.435 47.9444 173.743 47.8333C174.052 47.7201 174.322 47.5636 174.552 47.364C174.783 47.1622 174.969 46.9296 175.111 46.6662C175.255 46.4027 175.349 46.1207 175.392 45.8202L174.237 45.814C174.202 45.9993 174.139 46.1639 174.046 46.308C173.955 46.4521 173.843 46.5735 173.709 46.6723C173.578 46.7711 173.428 46.8463 173.262 46.8977C173.097 46.9471 172.92 46.9718 172.731 46.9718C172.389 46.9718 172.085 46.8885 171.82 46.7217C171.556 46.553 171.348 46.3039 171.196 45.9746C171.046 45.6432 170.971 45.2356 170.971 44.7519C170.971 44.2764 171.046 43.874 171.196 43.5446C171.346 43.2132 171.554 42.9621 171.82 42.7913C172.085 42.6184 172.39 42.5319 172.734 42.5319C172.927 42.5319 173.107 42.5587 173.274 42.6122C173.443 42.6637 173.593 42.7408 173.725 42.8438C173.857 42.9467 173.967 43.0722 174.055 43.2204C174.144 43.3666 174.204 43.5343 174.237 43.7237Z" fill="#182028"/>
<path d="M177.137 47.9135V41.5902H181.249V42.5504H178.282V44.2671H181.036V45.2274H178.282V46.9533H181.274V47.9135H177.137Z" fill="#182028"/>
</svg>
